# File created by Blade
# Date/Time:  Wed Apr 08 14:47:20 2015
# Frame Rate: 120.000 fps
#------------------------------------------------------
:FULLY-SPECIFIED
:DEGREES
4360
root -0.242155 35.396939 12.776101 -28.209971 20.227831 -67.005227
Spine 9.375742 -5.375832 40.403252
Head -12.654525 -20.850924 42.372138
LeftShoulder -3.045600 31.273721 28.272883
LeftArm 81.952254 0.474934 -74.585771
LeftForeArm 8.438692 -0.000000 118.208808
LeftHand 8.274446 -0.000000 1.769264
LeftHandThumb1 -26.253704 0.000000 33.147579
RightShoulder 3.651149 14.337163 -18.861880
RightArm 46.165026 -36.263997 68.599935
RightForeArm -3.893469 -0.000000 98.654349
RightHand 4.055551 -0.000000 15.416181
RightHandThumb1 -24.326973 -0.000000 -32.862282
LeftUpLeg -14.618940 14.460627 55.080216
LeftLeg 7.543021 -0.000000 -0.000000
LeftFoot -12.500356 7.247089 -29.201760
LeftToeBase 1.780621 -0.000000 -0.000000
RightUpLeg -63.982699 -40.737684 -27.684420
RightLeg 19.969479 -0.000000 -0.000000
RightFoot 26.286191 -20.759546 -12.103696
RightToeBase 19.863432 -0.000000 -0.000000
4361
root -0.221939 35.409673 12.841316 -30.015523 21.152570 -67.724863
Spine 9.812639 -6.708075 40.498346
Head -12.916137 -21.211326 42.318866
LeftShoulder -3.059886 31.350385 28.247300
LeftArm 82.036545 1.763227 -74.515793
LeftForeArm 8.992190 -0.000000 118.204216
LeftHand 8.179290 0.000000 1.238861
LeftHandThumb1 -26.253704 0.000000 33.147579
RightShoulder 3.524553 14.417460 -19.032290
RightArm 46.159154 -36.083211 68.519024
RightForeArm -3.855970 -0.000000 98.563717
RightHand 3.513184 0.000000 15.617598
RightHandThumb1 -24.326973 -0.000000 -32.862282
LeftUpLeg -14.614124 15.042990 54.779671
LeftLeg 7.373912 -0.000000 -0.000000
LeftFoot -13.088862 7.522500 -28.613434
LeftToeBase 1.242559 -0.000000 -0.000000
RightUpLeg -64.360538 -40.693013 -27.757504
RightLeg 23.854128 -0.000000 -0.000000
RightFoot 26.833805 -20.129435 -12.137475
RightToeBase 19.250892 -0.000000 -0.000000
4362
root -0.212651 35.422812 12.895988 -31.520653 22.023712 -68.359411
Spine 10.054079 -7.680946 40.510645
Head -13.212739 -21.623793 42.317182
LeftShoulder -3.113840 31.428346 28.207163
LeftArm 82.098448 3.003870 -74.409160
LeftForeArm 9.544837 0.000000 118.175308
LeftHand 8.318157 -0.000000 1.034042
LeftHandThumb1 -26.253704 0.000000 33.147579
RightShoulder 3.364691 14.617897 -19.078336
RightArm 46.119359 -35.975442 68.374937
RightForeArm -3.733318 -0.000000 98.403274
RightHand 2.816978 -0.000000 15.741667
RightHandThumb1 -24.326973 -0.000000 -32.862282
LeftUpLeg -14.766995 15.828799 54.388714
LeftLeg 7.258953 -0.000000 -0.000000
LeftFoot -13.536236 8.015779 -28.216813
LeftToeBase 1.326058 -0.000000 -0.000000
RightUpLeg -65.097021 -40.692889 -27.539424
RightLeg 27.619600 -0.000000 -0.000000
RightFoot 27.033300 -19.455696 -11.556372
RightToeBase 19.165353 -0.000000 -0.000000
4363
root -0.199108 35.433820 12.944668 -32.869491 22.831358 -68.817451
Spine 10.283365 -8.316183 40.387081
Head -13.573131 -22.095499 42.429762
LeftShoulder -3.125961 31.484795 28.194850
LeftArm 82.114386 4.213190 -74.246380
LeftForeArm 10.110053 -0.000000 118.194388
LeftHand 8.251021 -0.000000 1.092002
LeftHandThumb1 -26.253704 0.000000 33.147579
RightShoulder 3.267449 14.567026 -18.973685
RightArm 46.164954 -35.677914 68.372019
RightForeArm -4.048334 0.000000 98.350005
RightHand 2.113887 -0.000000 16.837352
RightHandThumb1 -24.326973 -0.000000 -32.862282
LeftUpLeg -14.910057 16.791688 53.853376
LeftLeg 7.229180 -0.000000 -0.000000
LeftFoot -13.977188 8.493345 -27.945500
LeftToeBase 1.543562 -0.000000 -0.000000
RightUpLeg -65.922474 -40.567187 -27.262791
RightLeg 31.189439 -0.000000 -0.000000
RightFoot 27.212873 -18.491741 -11.131396
RightToeBase 19.242294 -0.000000 -0.000000
4364
root -0.180320 35.440186 12.985617 -34.105853 23.629541 -69.187922
Spine 10.445023 -8.686655 40.232208
Head -13.983598 -22.740533 42.530722
LeftShoulder -3.086270 31.450177 28.151599
LeftArm 82.032950 5.345633 -74.054132
LeftForeArm 10.560917 -0.000000 118.196301
LeftHand 8.169547 -0.000000 1.317554
LeftHandThumb1 -26.253704 0.000000 33.147579
RightShoulder 3.023616 14.470611 -18.944090
RightArm 46.145105 -35.419174 68.636429
RightForeArm -4.434469 0.000000 98.065544
RightHand 2.187089 -0.000000 18.763552
RightHandThumb1 -24.326973 -0.000000 -32.862282
LeftUpLeg -15.046408 17.702079 53.235570
LeftLeg 7.175129 -0.000000 -0.000000
LeftFoot -14.244248 9.017460 -27.883735
LeftToeBase 0.662654 -0.000000 -0.000000
RightUpLeg -66.746840 -40.385035 -26.930577
RightLeg 34.547581 -0.000000 -0.000000
RightFoot 27.459987 -17.371185 -10.839357
RightToeBase 19.175653 -0.000000 -0.000000
4365
root -0.165301 35.442493 13.019027 -35.161692 24.398898 -69.419694
Spine 10.550209 -8.800935 39.975222
Head -14.397247 -23.430994 42.656751
LeftShoulder -3.056181 31.383582 28.096800
LeftArm 81.879320 6.354718 -73.858297
LeftForeArm 10.817697 -0.000000 118.200494
LeftHand 8.127063 -0.000000 0.978938
LeftHandThumb1 -26.253704 0.000000 33.147579
RightShoulder 2.757266 14.380768 -18.843861
RightArm 46.472505 -35.143747 68.698485
RightForeArm -4.819674 -0.000000 97.600122
RightHand 2.336623 -0.000000 20.510047
RightHandThumb1 -24.326973 -0.000000 -32.862282
LeftUpLeg -15.176926 18.613623 52.511799
LeftLeg 7.097092 -0.000000 -0.000000
LeftFoot -14.369920 9.665664 -27.543665
LeftToeBase 0.925539 -0.000000 -0.000000
RightUpLeg -67.676053 -40.104089 -26.508231
RightLeg 37.685547 -0.000000 -0.000000
RightFoot 27.754954 -16.197626 -10.694309
RightToeBase 18.893899 -0.000000 -0.000000
4366
root -0.147119 35.437464 13.050954 -36.064111 25.214837 -69.556398
Spine 10.525935 -8.733674 39.624784
Head -14.799521 -24.133690 42.798038
LeftShoulder -3.065526 31.423511 28.012741
LeftArm 81.770673 7.265477 -73.635725
LeftForeArm 10.788612 0.000000 118.168119
LeftHand 8.274726 -0.000000 1.095838
LeftHandThumb1 -26.253704 0.000000 33.147579
RightShoulder 2.676022 14.720204 -18.685193
RightArm 46.382025 -34.930799 68.982047
RightForeArm -5.247714 -0.000000 97.220204
RightHand 1.972846 -0.000000 21.794728
RightHandThumb1 -24.326973 -0.000000 -32.862282
LeftUpLeg -15.359279 19.469480 51.662201
LeftLeg 6.990630 -0.000000 -0.000000
LeftFoot -14.248292 10.310770 -27.211750
LeftToeBase 0.833737 -0.000000 -0.000000
RightUpLeg -68.695558 -39.850856 -26.015330
RightLeg 40.699002 -0.000000 -0.000000
RightFoot 27.869760 -15.238261 -10.195574
RightToeBase 18.452900 -0.000000 -0.000000
4367
root -0.123335 35.432443 13.084514 -37.016015 25.987528 -69.734958
Spine 10.507288 -8.583133 39.336242
Head -15.183854 -24.982958 42.935086
LeftShoulder -3.093232 31.536693 27.917591
LeftArm 81.709172 8.072812 -73.364147
LeftForeArm 10.641181 -0.000000 118.106269
LeftHand 8.369173 -0.000000 1.230086
LeftHandThumb1 -26.253704 0.000000 33.147579
RightShoulder 2.567586 14.885820 -18.611769
RightArm 46.582046 -34.706150 69.160823
RightForeArm -5.601504 0.000000 96.764369
RightHand 1.489476 -0.000000 22.619140
RightHandThumb1 -24.326973 -0.000000 -32.862282
LeftUpLeg -15.530540 20.294057 50.850871
LeftLeg 6.940734 -0.000000 -0.000000
LeftFoot -13.997304 10.917735 -26.769462
LeftToeBase 0.586523 -0.000000 -0.000000
RightUpLeg -69.666699 -39.582514 -25.326578
RightLeg 43.590030 -0.000000 -0.000000
RightFoot 28.007302 -14.430816 -9.837503
RightToeBase 18.504964 -0.000000 -0.000000
